<?xml version="1.0" encoding="UTF-8" standalone="no"?>
<!-- Created with Inkscape (http://www.inkscape.org/) -->

<svg
   width="1920"
   height="1080"
   viewBox="0 0 508 285.75"
   version="1.1"
   id="svg1"
   inkscape:export-filename="fanart.png"
   inkscape:export-xdpi="96"
   inkscape:export-ydpi="96"
   inkscape:version="1.3 (0e150ed6c4, 2023-07-21)"
   sodipodi:docname="fanart.svg"
   xmlns:inkscape="http://www.inkscape.org/namespaces/inkscape"
   xmlns:sodipodi="http://sodipodi.sourceforge.net/DTD/sodipodi-0.dtd"
   xmlns="http://www.w3.org/2000/svg"
   xmlns:svg="http://www.w3.org/2000/svg">
  <sodipodi:namedview
     id="namedview1"
     pagecolor="#ffffff"
     bordercolor="#000000"
     borderopacity="0.25"
     inkscape:showpageshadow="2"
     inkscape:pageopacity="0.0"
     inkscape:pagecheckerboard="0"
     inkscape:deskcolor="#d1d1d1"
     inkscape:document-units="mm"
     inkscape:zoom="0.41246493"
     inkscape:cx="573.38209"
     inkscape:cy="436.40074"
     inkscape:window-width="1868"
     inkscape:window-height="1172"
     inkscape:window-x="0"
     inkscape:window-y="0"
     inkscape:window-maximized="1"
     inkscape:current-layer="layer1" />
  <defs
     id="defs1" />
  <g
     inkscape:label="Ebene 1"
     inkscape:groupmode="layer"
     id="layer1">
    <rect
       style="fill:#000000;fill-opacity:1;stroke:#4d4d4d;stroke-width:0.153"
       id="rect1"
       width="516.38232"
       height="299.56586"
       x="-3.8488119"
       y="-5.1317492" />
    <g
       id="g1"
       transform="translate(13.068655,-4.60807)">
      <path
         clip-rule="evenodd"
         d="m 203.22611,128.65664 h 14.54203 c 9.00404,0 15.37097,5.99017 15.37097,14.50446 0,8.51429 -6.36693,14.50446 -15.37097,14.50446 h -14.54203 z m 11.30221,21.17275 h 2.6371 c 2.82549,0 4.33255,-1.88357 4.33255,-6.66829 0,-4.78446 -1.50706,-6.66829 -4.33255,-6.66829 h -2.6371 z m 44.22854,7.83617 H 234.8716 v -29.00892 h 23.88526 v 7.83617 h -12.62089 v 3.35306 h 11.86736 v 6.4045 h -11.86736 v 3.57902 h 12.62089 z m 26.59751,0 h -23.885 v -29.00892 h 23.885 v 7.83617 h -12.62063 v 3.35306 h 11.86736 v 6.4045 h -11.86736 v 3.57902 h 12.62063 z m 86.6878,0 c -1.62771,-4.43574 -3.90419,-9.16861 -6.96647,-14.47377 3.5814,-1.05039 5.7232,-3.30835 5.7232,-6.77413 0,-5.27446 -4.85987,-7.76102 -12.54549,-7.76102 h -15.82287 v 29.00892 h 11.30194 v -11.99939 c 2.51116,4.2291 4.36113,8.22008 5.57583,11.99939 z m -18.30969,-16.0491 v -5.12365 h 3.91821 c 1.65762,0 2.59953,0.90434 2.59953,2.56196 0,1.65761 -0.94191,2.56169 -2.59953,2.56169 z m -14.01445,16.0491 h -23.88526 v -29.00892 h 23.88526 v 7.83617 H 327.0974 v 3.35306 h 11.86736 v 6.4045 H 327.0974 v 3.57902 h 12.62063 z M 288.0674,136.49281 h 11.66177 c -4.83844,3.95896 -8.82041,8.44285 -11.88799,13.33658 v 7.83617 h 25.65585 v -7.83617 h -12.8233 c 2.93846,-4.27513 7.04453,-8.53228 12.8233,-13.33658 v -7.83617 H 288.0674 Z"
         fill-rule="evenodd"
         class="css-1gjf41f"
         id="path1"
         style="fill:#ffffff;stroke-width:0.264583" />
      <path
         clip-rule="evenodd"
         d="m 171.43669,121.95845 c 0.67971,-3.93965 1.67719,-6.4172 2.78209,-6.4217 h 0.002 c 2.06031,0.007 3.73036,8.59843 3.73036,19.2061 0,10.60741 -1.67243,19.20584 -3.73485,19.20584 -0.84561,0 -1.62587,-1.45997 -2.25399,-3.90657 -0.99272,8.95614 -3.05276,15.11273 -5.43772,15.11273 -1.8452,0 -3.50123,-3.69834 -4.61301,-9.53082 -0.75909,11.09239 -2.66964,18.96243 -4.90273,18.96243 -1.40149,0 -2.67917,-3.11865 -3.62505,-8.19653 -1.13745,10.482 -3.76529,17.82657 -6.82969,17.82657 -3.06441,0 -5.69701,-7.34219 -6.82969,-17.82657 -0.93901,5.07788 -2.21668,8.19653 -3.62506,8.19653 -2.23308,0 -4.13888,-7.87004 -4.90273,-18.96243 -1.11178,5.83248 -2.76331,9.53082 -4.61327,9.53082 -2.38231,0 -4.445,-6.15447 -5.43745,-15.11273 -0.62363,2.45374 -1.40838,3.90657 -2.25399,3.90657 -2.06243,0 -3.73486,-8.59843 -3.73486,-19.2061 0,-10.60715 1.67217,-19.20611 3.73486,-19.20611 1.10702,0 2.09762,2.48444 2.78421,6.42197 1.10014,-6.79344 2.88687,-11.20881 4.90723,-11.20881 2.39897,0 4.47781,6.24417 5.461,15.31144 0.96255,-6.59924 2.42226,-10.80638 4.05738,-10.80638 2.29129,0 4.23916,8.27458 4.96094,19.8165 1.35705,-5.91767 3.32158,-9.63004 5.49619,-9.63004 2.17435,0 4.13888,3.71475 5.49354,9.6303 0.72417,-11.54218 2.66965,-19.81676 4.96121,-19.81676 1.63248,0 3.09006,4.20688 4.05712,10.80638 0.98107,-9.06727 3.0599,-15.31144 5.45862,-15.31144 2.01347,0 3.80709,4.41775 4.90722,11.20855 z m -61.61617,10.89528 c 0,-4.74186 0.94801,-8.58679 2.11826,-8.58679 1.17025,0 2.11852,3.84493 2.11852,8.58679 0,4.74159 -0.94827,8.58678 -2.11852,8.58678 -1.17025,0 -2.11826,-3.84519 -2.11826,-8.58678 z m 69.22903,0 c 0,-4.74186 0.94826,-8.58679 2.11851,-8.58679 1.16999,0 2.11852,3.84493 2.11852,8.58679 0,4.74159 -0.94853,8.58678 -2.11852,8.58678 -1.17025,0 -2.11851,-3.84519 -2.11851,-8.58678 z"
         fill-rule="evenodd"
         class="css-1ipg7gb"
         id="path2"
         style="fill:#a238ff;fill-opacity:1;stroke-width:0.264583" />
    </g>
  </g>
</svg>
